<svg width="745" height="277" viewBox="0 0 745 277" fill="none" xmlns="http://www.w3.org/2000/svg">
<path d="M80.7332 49.0181C80.7332 57.0416 79.02 64.3546 75.5934 70.9572C72.2504 77.5598 67.3195 82.8252 60.8007 86.7533C54.2818 90.6815 46.3422 92.6455 36.9818 92.6455H0V88.2577L11.9094 84.6221V12.9127L0 10.5307L1.25362 4.88927H36.9818C44.2528 4.88927 50.6045 6.05936 56.0369 8.39952C61.5528 10.6561 66.1077 13.8321 69.7014 17.9273C73.3787 22.0226 76.1366 26.7448 77.9753 32.0937C79.8139 37.3591 80.7332 43.0006 80.7332 49.0181ZM24.4456 11.7844V85.7504H34.8507C45.214 85.7504 53.2371 82.4491 58.9202 75.8465C64.6869 69.2439 67.5702 60.3011 67.5702 49.0181C67.5702 41.4962 66.442 34.9353 64.1854 29.3357C61.9289 23.736 58.377 19.4317 53.5297 16.423C48.7659 13.3306 42.5396 11.7844 34.8507 11.7844H24.4456Z" fill="#FFD089"/>
<path d="M109.392 8.90099C109.894 10.9904 109.894 13.4977 109.392 16.423C108.974 19.2646 108.139 22.148 106.885 25.0732C105.715 27.9984 104.211 30.5893 102.372 32.8459C100.617 35.0189 98.6528 36.4815 96.4799 37.2337L93.9727 34.0996C96.9814 32.0937 98.8618 29.5028 99.614 26.3269C100.45 23.1509 100.617 20.3929 100.115 18.0527C96.1874 16.0469 93.2205 13.0799 91.2147 9.15172C93.3876 5.14001 96.4799 2.08943 100.491 0C104.336 2.08943 107.303 5.05643 109.392 8.90099Z" fill="#FFD089"/>
<path d="M215.569 12.9127V84.6221L227.478 87.0041L226.225 92.6455H191.249V88.2577L203.033 84.7475V21.563L172.068 84.6221H167.681L136.591 23.1927V84.6221L148.5 87.0041L147.247 92.6455H117.16V88.2577L129.069 84.6221V12.9127L117.285 10.5307L118.539 4.88927H140.728L172.319 67.5723L203.158 4.88927H227.478V9.27709L215.569 12.9127Z" fill="#FFD089"/>
<path d="M264.642 12.9127V84.6221L276.551 87.0041L275.297 92.6455H240.196V88.2577L252.105 84.6221V12.9127L240.196 10.5307L241.45 4.88927H276.551V9.27709L264.642 12.9127Z" fill="#FFD089"/>
<path d="M346.578 67.6977L352.847 68.9513V92.6455H289.288V88.2577L301.197 84.6221V12.9127L289.288 10.5307L290.542 4.88927H326.897V9.27709L313.734 12.9127V85.7504H342.316L346.578 67.6977Z" fill="#FFD089"/>
<path d="M416.972 67.6977L423.24 68.9513V92.6455H359.682V88.2577L371.591 84.6221V12.9127L359.682 10.5307L360.935 4.88927H397.29V9.27709L384.127 12.9127V85.7504H412.71L416.972 67.6977Z" fill="#FFD089"/>
<path d="M454.521 12.9127V84.6221L466.431 87.0041L465.177 92.6455H430.076V88.2577L441.985 84.6221V12.9127L430.076 10.5307L431.329 4.88927H466.431V9.27709L454.521 12.9127Z" fill="#FFD089"/>
<path d="M517.523 3.13415C524.46 3.13415 530.561 4.38781 535.826 6.89513C541.092 9.31888 545.521 12.7038 549.115 17.0498C552.708 21.3122 555.425 26.2015 557.263 31.7176C559.102 37.1501 560.021 42.8752 560.021 48.8928C560.021 55.1611 559.06 61.0533 557.138 66.5694C555.216 72.0855 552.416 76.933 548.739 81.1118C545.061 85.2907 540.59 88.5502 535.325 90.8904C530.143 93.2306 524.251 94.4007 517.649 94.4007C510.712 94.4007 504.569 93.1888 499.221 90.765C493.955 88.2577 489.526 84.8728 485.932 80.6104C482.338 76.2644 479.622 71.3751 477.784 65.9426C476.029 60.4264 475.151 54.6596 475.151 48.642C475.151 42.3737 476.112 36.4815 478.034 30.9654C479.957 25.4493 482.756 20.6018 486.434 16.423C490.111 12.2441 494.54 8.98456 499.722 6.6444C504.987 4.30423 510.921 3.13415 517.523 3.13415ZM519.028 87.5055C523.207 87.5055 526.967 86.5444 530.31 84.6221C533.737 82.6162 536.662 79.9 539.086 76.4733C541.593 73.0466 543.515 69.1603 544.852 64.8143C546.19 60.3847 546.858 55.7879 546.858 51.024C546.858 45.8422 546.273 40.8275 545.103 35.9801C543.933 31.049 542.094 26.6612 539.587 22.8166C537.08 18.8885 533.904 15.7961 530.06 13.5395C526.215 11.1994 521.577 10.0293 516.144 10.0293C511.966 10.0293 508.163 11.0322 504.737 13.0381C501.394 14.9603 498.468 17.6348 495.961 21.0615C493.538 24.4882 491.657 28.4163 490.32 32.8459C488.983 37.1919 488.314 41.7469 488.314 46.5108C488.314 51.6926 488.899 56.749 490.069 61.6801C491.239 66.5276 493.078 70.9154 495.585 74.8435C498.092 78.6881 501.268 81.7805 505.113 84.1206C509.041 86.3772 513.679 87.5055 519.028 87.5055Z" fill="#FFD089"/>
<path d="M588.091 4.88927L639.364 72.9631V12.9127L627.58 10.5307L628.833 4.88927H658.795V9.27709L646.885 12.9127V92.6455H639.364L588.091 24.4464V84.6221L600 87.0041L598.746 92.6455H568.659V88.2577L580.569 84.6221V12.9127L568.659 10.5307L569.913 4.88927H588.091Z" fill="#FFD089"/>
<path d="M32.4688 158.278C36.3132 158.278 40.2413 158.529 44.2529 159.031C48.2644 159.532 51.9835 160.66 55.4101 162.415C58.9202 164.171 61.72 166.887 63.8093 170.564C65.9823 174.242 67.0688 179.256 67.0688 185.608C67.0688 191.208 65.9823 195.763 63.8093 199.273C61.72 202.7 58.9202 205.332 55.4101 207.171C51.9835 209.01 48.2644 210.263 44.2529 210.932C40.2413 211.601 36.3132 211.935 32.4688 211.935H24.4456V238.011L38.8623 240.393L37.6087 246.035H0V241.647L11.9094 238.011V166.302L0 163.92L1.25362 158.278H32.4688ZM24.4456 165.173V205.04H32.4688C35.1432 205.04 37.734 204.873 40.2413 204.538C42.7485 204.121 45.0468 203.285 47.1362 202.031C49.2255 200.694 50.8553 198.73 52.0253 196.139C53.2789 193.548 53.9057 190.038 53.9057 185.608C53.9057 180.343 52.9446 176.247 51.0224 173.322C49.1002 170.313 46.5094 168.224 43.25 167.054C40.0741 165.8 36.4804 165.173 32.4688 165.173H24.4456Z" fill="#FFD089"/>
<path d="M93.8649 190.247C96.7065 186.82 100.175 184.229 104.27 182.474C108.365 180.635 112.126 179.716 115.553 179.716C121.57 179.716 126.208 181.555 129.468 185.232C132.811 188.909 134.482 194.76 134.482 202.783L134.608 238.262L144.637 240.393L143.383 246.035H113.672V242.274L123.325 238.513V205.291C123.325 201.112 122.865 197.936 121.946 195.763C121.11 193.506 119.773 192.002 117.934 191.25C116.179 190.414 113.965 189.996 111.29 189.996C107.947 189.996 104.604 190.581 101.261 191.751C98.0019 192.921 95.5364 194.467 93.8649 196.39V238.262L103.267 240.017L102.013 246.035H71.5505V242.274L82.5823 238.513V162.165L72.1773 160.159L71.5505 155.019L93.8649 152.01V190.247Z" fill="#FFD089"/>
<path d="M179.727 179.591C185.41 179.591 190.299 180.552 194.395 182.474C198.573 184.313 202.042 186.82 204.8 189.996C207.558 193.172 209.605 196.766 210.942 200.777C212.28 204.706 212.948 208.759 212.948 212.938C212.948 217.2 212.238 221.379 210.817 225.475C209.48 229.486 207.474 233.122 204.8 236.381C202.209 239.641 198.949 242.232 195.021 244.154C191.177 246.076 186.748 247.038 181.733 247.038C176.134 247.038 171.244 246.118 167.066 244.279C162.887 242.357 159.419 239.808 156.661 236.632C153.903 233.456 151.855 229.904 150.518 225.976C149.181 221.964 148.512 217.869 148.512 213.69C148.512 209.428 149.181 205.291 150.518 201.279C151.939 197.184 153.944 193.506 156.535 190.247C159.21 186.987 162.469 184.396 166.313 182.474C170.242 180.552 174.713 179.591 179.727 179.591ZM181.608 240.142C186.121 240.142 189.756 238.889 192.514 236.381C195.272 233.874 197.278 230.656 198.532 226.728C199.785 222.8 200.412 218.663 200.412 214.317C200.412 209.72 199.785 205.291 198.532 201.028C197.278 196.766 195.147 193.297 192.138 190.623C189.213 187.865 185.118 186.486 179.853 186.486C175.423 186.486 171.788 187.739 168.946 190.247C166.188 192.754 164.182 195.972 162.929 199.9C161.675 203.828 161.048 207.965 161.048 212.311C161.048 216.908 161.675 221.337 162.929 225.6C164.182 229.862 166.272 233.373 169.197 236.131C172.206 238.805 176.342 240.142 181.608 240.142Z" fill="#FFD089"/>
<path d="M263.817 237.384C261.895 240.393 259.095 242.859 255.418 244.781C251.74 246.62 248.021 247.539 244.26 247.539C240.583 247.539 237.7 246.787 235.61 245.282C233.605 243.694 232.184 241.563 231.348 238.889C230.512 236.214 230.094 233.205 230.094 229.862V187.865H220.191V183.477L230.721 179.716L235.109 165.8H241.377V180.844H261.435V187.739H241.377V226.854C241.377 231.45 241.795 234.584 242.631 236.256C243.466 237.928 245.472 238.763 248.648 238.763C250.57 238.763 252.534 238.429 254.54 237.76C256.546 237.092 258.844 235.964 261.435 234.376L263.817 237.384Z" fill="#FFD089"/>
<path d="M298.846 179.591C304.529 179.591 309.418 180.552 313.513 182.474C317.692 184.313 321.16 186.82 323.918 189.996C326.676 193.172 328.724 196.766 330.061 200.777C331.398 204.706 332.067 208.759 332.067 212.938C332.067 217.2 331.356 221.379 329.936 225.475C328.598 229.486 326.593 233.122 323.918 236.381C321.327 239.641 318.068 242.232 314.14 244.154C310.296 246.076 305.866 247.038 300.852 247.038C295.252 247.038 290.363 246.118 286.184 244.279C282.005 242.357 278.537 239.808 275.779 236.632C273.021 233.456 270.974 229.904 269.636 225.976C268.299 221.964 267.631 217.869 267.631 213.69C267.631 209.428 268.299 205.291 269.636 201.279C271.057 197.184 273.063 193.506 275.654 190.247C278.328 186.987 281.588 184.396 285.432 182.474C289.36 180.552 293.831 179.591 298.846 179.591ZM300.726 240.142C305.239 240.142 308.875 238.889 311.633 236.381C314.391 233.874 316.397 230.656 317.65 226.728C318.904 222.8 319.531 218.663 319.531 214.317C319.531 209.72 318.904 205.291 317.65 201.028C316.397 196.766 314.265 193.297 311.257 190.623C308.332 187.865 304.236 186.486 298.971 186.486C294.542 186.486 290.906 187.739 288.065 190.247C285.307 192.754 283.301 195.972 282.047 199.9C280.794 203.828 280.167 207.965 280.167 212.311C280.167 216.908 280.794 221.337 282.047 225.6C283.301 229.862 285.39 233.373 288.315 236.131C291.324 238.805 295.461 240.142 300.726 240.142Z" fill="#FFD089"/>
<path d="M370.274 225.851C368.937 225.851 367.599 225.809 366.262 225.725C364.925 225.558 363.588 225.307 362.251 224.973C360.83 226.06 359.618 227.313 358.615 228.734C357.612 230.155 357.111 231.659 357.111 233.247C357.111 234.668 357.779 235.88 359.117 236.883C360.454 237.802 362.501 238.304 365.259 238.387H388.827C394.176 238.554 397.979 239.933 400.235 242.524C402.575 245.032 403.746 248.04 403.746 251.551C403.746 255.562 402.617 259.156 400.361 262.332C398.188 265.508 395.263 268.183 391.585 270.356C387.992 272.529 383.98 274.158 379.551 275.245C375.121 276.415 370.692 277 366.262 277C358.741 277 352.681 275.621 348.085 272.863C343.572 270.188 341.315 266.01 341.315 260.326C341.315 257.15 342.276 254.351 344.198 251.927C346.204 249.587 348.879 247.33 352.222 245.157C348.879 242.817 347.207 239.641 347.207 235.629C347.207 233.456 347.959 231.2 349.464 228.859C351.052 226.519 353.266 224.513 356.108 222.842C352.431 221.17 349.422 218.788 347.082 215.696C344.742 212.604 343.572 208.55 343.572 203.535C343.572 197.852 344.784 193.255 347.207 189.745C349.631 186.235 352.848 183.686 356.86 182.098C360.955 180.426 365.385 179.591 370.148 179.591C373.408 179.591 376.458 180.008 379.3 180.844C382.225 181.68 384.774 182.975 386.947 184.731C388.117 184.731 389.872 184.689 392.212 184.605C394.552 184.438 396.934 184.271 399.358 184.104C400.779 184.02 402.199 183.937 403.62 183.853C405.125 183.686 406.671 183.561 408.259 183.477V192.127L392.588 191.751C393.424 193.423 394.009 195.261 394.343 197.267C394.678 199.189 394.845 201.279 394.845 203.535C394.845 209.052 393.675 213.439 391.335 216.699C388.995 219.958 385.944 222.299 382.183 223.719C378.422 225.14 374.453 225.851 370.274 225.851ZM370.525 218.956C374.703 218.956 377.712 217.493 379.551 214.568C381.389 211.642 382.309 207.965 382.309 203.535C382.309 198.855 381.264 194.802 379.175 191.375C377.085 187.948 373.784 186.235 369.271 186.235C364.925 186.235 361.624 187.823 359.367 190.999C357.111 194.175 355.983 198.228 355.983 203.159C355.983 207.673 357.111 211.434 359.367 214.442C361.707 217.451 365.426 218.956 370.525 218.956ZM367.892 249.043C363.63 249.043 359.994 248.5 356.985 247.414C354.144 250.757 352.723 253.933 352.723 256.941C352.723 261.789 354.478 265.132 357.988 266.971C361.582 268.809 366.137 269.729 371.653 269.729C375.581 269.729 379.342 269.102 382.935 267.848C386.529 266.595 389.454 264.881 391.711 262.708C393.967 260.619 395.096 258.362 395.096 255.939C395.096 253.515 394.26 251.76 392.588 250.673C390.917 249.587 387.657 249.043 382.81 249.043H367.892Z" fill="#FFD089"/>
<path d="M465.381 198.521L458.862 199.649L455.477 190.121C455.143 190.038 454.725 189.996 454.223 189.996C453.722 189.996 453.304 189.996 452.97 189.996C450.295 189.996 447.496 190.581 444.57 191.751C441.645 192.921 439.347 194.467 437.676 196.39V238.262L449.209 240.017L447.955 246.035H415.612V242.274L426.518 238.513V190.497L416.113 188.492L415.486 182.975L437.676 179.967V190.247C440.517 187.238 443.526 184.772 446.702 182.85C449.961 180.928 453.429 179.967 457.107 179.967C459.865 179.967 462.623 180.552 465.381 181.722V198.521Z" fill="#FFD089"/>
<path d="M509.824 246.035V235.88C508.153 237.886 506.022 239.724 503.431 241.396C500.924 243.068 498.249 244.447 495.408 245.533C492.65 246.536 490.059 247.038 487.635 247.038C483.206 247.038 479.32 245.617 475.977 242.775C472.634 239.933 470.962 235.88 470.962 230.615C470.962 226.436 472.007 223.051 474.096 220.46C476.269 217.785 480.072 215.738 485.504 214.317C489.599 213.23 493.527 212.353 497.288 211.684C501.133 210.932 505.311 210.305 509.824 209.804V199.524C509.824 194.843 508.571 191.542 506.064 189.62C503.556 187.614 500.548 186.611 497.038 186.611C495.115 186.611 493.151 186.736 491.146 186.987C489.14 187.238 487.176 187.698 485.253 188.366L481.743 202.658L475.224 201.53V185.232C478.484 183.811 481.952 182.558 485.63 181.471C489.39 180.301 493.402 179.716 497.664 179.716C502.01 179.716 505.938 180.343 509.448 181.596C513.042 182.767 515.884 184.814 517.973 187.739C520.062 190.665 521.107 194.635 521.107 199.649V238.137L530.133 240.268L528.88 246.035H509.824ZM483.498 229.612C483.498 233.54 484.418 236.131 486.256 237.384C488.179 238.554 490.393 239.139 492.901 239.139C494.906 239.139 497.038 238.638 499.294 237.635C501.551 236.632 503.598 235.378 505.437 233.874C507.359 232.286 508.822 230.782 509.824 229.361V215.069C507.15 215.403 504.476 215.78 501.801 216.197C499.127 216.532 496.453 217.075 493.778 217.827C489.85 218.914 487.134 220.502 485.63 222.591C484.209 224.681 483.498 227.021 483.498 229.612Z" fill="#FFD089"/>
<path d="M551.489 188.115C554.748 185.19 558.049 183.059 561.392 181.722C564.819 180.385 568.12 179.716 571.296 179.716C576.06 179.716 580.364 181.053 584.208 183.728C588.053 186.402 591.103 190.121 593.36 194.885C595.7 199.566 596.87 205.082 596.87 211.434C596.87 217.953 595.616 223.845 593.109 229.11C590.685 234.376 587.217 238.554 582.704 241.647C578.274 244.739 573.009 246.285 566.908 246.285C562.145 246.285 557.005 245.199 551.489 243.026V266.469L563.524 268.224L562.27 274.242H529.3V270.481L540.206 266.72V190.497L530.052 188.492L529.425 182.975L551.489 179.967V188.115ZM551.489 233.623C554.414 235.629 557.13 237.092 559.637 238.011C562.228 238.931 564.61 239.39 566.783 239.39C570.544 239.39 573.72 238.22 576.31 235.88C578.985 233.54 580.991 230.406 582.328 226.477C583.749 222.549 584.459 218.245 584.459 213.565C584.459 206.126 582.955 200.234 579.946 195.888C577.021 191.459 572.926 189.244 567.661 189.244C565.32 189.244 562.771 189.745 560.013 190.748C557.339 191.668 554.497 193.214 551.489 195.387V233.623Z" fill="#FFD089"/>
<path d="M623.716 190.247C626.557 186.82 630.026 184.229 634.121 182.474C638.216 180.635 641.977 179.716 645.404 179.716C651.421 179.716 656.059 181.555 659.319 185.232C662.662 188.909 664.333 194.76 664.333 202.783L664.459 238.262L674.488 240.393L673.234 246.035H643.523V242.274L653.176 238.513V205.291C653.176 201.112 652.716 197.936 651.797 195.763C650.961 193.506 649.624 192.002 647.786 191.25C646.03 190.414 643.816 189.996 641.141 189.996C637.798 189.996 634.455 190.581 631.112 191.751C627.853 192.921 625.387 194.467 623.716 196.39V238.262L633.118 240.017L631.865 246.035H601.402V242.274L612.433 238.513V162.165L602.028 160.159L601.402 155.019L623.716 152.01V190.247Z" fill="#FFD089"/>
<path d="M703.129 251.3C703.547 250.213 704.007 249.043 704.508 247.79C705.093 246.536 705.636 245.241 706.138 243.903L683.573 188.617L674.922 186.486L676.176 180.844H703.004V184.605L695.482 187.739L711.027 226.227L711.779 229.737L729.079 188.115L721.432 186.862L722.685 180.844H745V184.605L736.851 188.241C732.923 198.019 729.204 206.795 725.694 214.568C722.268 222.257 719.343 229.152 716.919 235.253C714.662 240.936 712.615 246.035 710.776 250.548C708.937 255.145 707.099 259.031 705.26 262.207C703.422 265.55 700.914 268.475 697.738 270.982C694.646 273.573 690.635 274.869 685.704 274.869C683.113 274.869 680.438 274.451 677.68 273.615L681.191 263.21C682.528 263.544 683.823 263.753 685.077 263.837C686.331 264.004 687.501 264.087 688.587 264.087C691.596 264.087 693.894 263.544 695.482 262.458C697.153 261.371 698.491 259.867 699.494 257.944C700.58 256.022 701.792 253.807 703.129 251.3Z" fill="#FFD089"/>
</svg>
